<svg width="376" height="512" viewBox="0 0 376 512" fill="none" xmlns="http://www.w3.org/2000/svg">
<g clip-path="url(#clip0)">
<path d="M188.531 221.951C184.389 221.951 181.031 225.309 181.031 229.451V242.245L176.391 237.464C173.506 234.492 168.758 234.421 165.786 237.306C162.814 240.191 162.743 244.939 165.628 247.911L183.15 265.964C184.563 267.42 186.504 268.24 188.532 268.24H188.59C190.637 268.224 192.59 267.372 193.994 265.88L210.986 247.827C213.825 244.811 213.68 240.064 210.665 237.225C207.649 234.387 202.904 234.529 200.062 237.546L196.033 241.827V229.449C196.031 225.309 192.673 221.951 188.531 221.951Z" fill="#F8CF40"/>
<path d="M287.378 435.37H89.6839C79.7729 435.37 71.7109 443.433 71.7109 453.344V494.027C71.7109 503.938 79.7739 512.001 89.6839 512.001H144.332C148.474 512.001 151.832 508.643 151.832 504.501C151.832 500.359 148.474 497.001 144.332 497.001H89.6839C88.0449 497.001 86.7109 495.667 86.7109 494.027V453.344C86.7109 451.704 88.0449 450.37 89.6839 450.37H287.378C289.018 450.37 290.352 451.704 290.352 453.344V494.027C290.352 495.667 289.018 497.001 287.378 497.001H179.084C174.942 497.001 171.584 500.359 171.584 504.501C171.584 508.643 174.942 512.001 179.084 512.001H287.378C297.289 512.001 305.352 503.938 305.352 494.027V453.344C305.352 443.433 297.289 435.37 287.378 435.37Z" fill="#F8CF40"/>
<path d="M287.377 135.401H141.749C137.607 135.401 134.249 138.759 134.249 142.901C134.249 147.043 137.607 150.401 141.749 150.401H287.377C289.017 150.401 290.351 151.735 290.351 153.374V194.058C290.351 195.697 289.017 197.031 287.377 197.031H89.6829C88.0439 197.031 86.7099 195.697 86.7099 194.058V153.374C86.7099 151.735 88.0439 150.401 89.6829 150.401H106.999C111.141 150.401 114.499 147.043 114.499 142.901C114.499 138.759 111.141 135.401 106.999 135.401H89.6839C79.7729 135.401 71.7109 143.464 71.7109 153.374V194.058C71.7109 203.969 79.7739 212.031 89.6839 212.031H287.378C297.289 212.031 305.352 203.968 305.352 194.058V153.374C305.351 143.463 297.288 135.401 287.377 135.401Z" fill="#F8CF40"/>
<path d="M89.8459 327.184C89.8149 334.622 94.2599 341.205 101.169 343.957L174.058 372.986C178.725 374.844 183.628 375.774 188.532 375.774C193.436 375.774 198.339 374.845 203.006 372.986L275.894 343.957C282.804 341.206 287.249 334.622 287.218 327.184C287.187 319.746 282.687 313.2 275.754 310.506L248.324 299.847C244.459 298.347 240.116 300.261 238.616 304.121C237.116 307.982 239.03 312.328 242.89 313.828L270.321 324.487C271.964 325.126 272.215 326.49 272.217 327.246C272.219 328.002 271.981 329.369 270.343 330.021L197.454 359.05C191.7 361.342 185.362 361.342 179.607 359.05L106.718 330.021C105.081 329.369 104.842 328.002 104.845 327.246C104.848 326.49 105.099 325.125 106.741 324.487L179.795 296.1C185.428 293.912 191.632 293.912 197.265 296.1L210.664 301.307C214.529 302.809 218.872 300.893 220.372 297.033C221.872 293.173 219.958 288.826 216.098 287.326L202.699 282.119C193.563 278.568 183.499 278.568 174.363 282.119L101.309 310.506C94.3779 313.2 89.8779 319.747 89.8459 327.184Z" fill="#F8CF40"/>
<path d="M188.531 80.709C184.389 80.709 181.031 84.067 181.031 88.209V101.003L176.391 96.222C173.506 93.25 168.758 93.179 165.786 96.064C162.814 98.949 162.743 103.697 165.628 106.669L183.15 124.723C184.563 126.179 186.504 126.999 188.532 126.999H188.59C190.638 126.983 192.59 126.13 193.994 124.639L210.986 106.585C213.825 103.569 213.68 98.822 210.665 95.983C207.649 93.145 202.904 93.288 200.062 96.304L196.033 100.585V88.209C196.031 84.067 192.673 80.709 188.531 80.709Z" fill="#F8CF40"/>
<path d="M357.531 320.169H321.278C317.135 320.169 313.778 323.527 313.778 327.669C313.778 331.811 317.135 335.169 321.278 335.169H357.531C359.171 335.169 360.505 336.503 360.505 338.143V463.211C360.505 464.851 359.171 466.185 357.531 466.185H339.047L343.555 461.81C346.528 458.925 346.598 454.177 343.713 451.205C340.828 448.233 336.08 448.162 333.108 451.047L315.054 468.569C313.584 469.995 312.762 471.961 312.778 474.008C312.794 476.055 313.646 478.008 315.137 479.412L333.191 496.404C334.639 497.767 336.487 498.443 338.331 498.443C340.326 498.443 342.317 497.651 343.794 496.083C346.633 493.067 346.488 488.32 343.473 485.481L338.909 481.186H357.532C367.443 481.186 375.506 473.123 375.506 463.212V338.143C375.504 328.232 367.442 320.169 357.531 320.169Z" fill="#F8CF40"/>
<path d="M32.2881 202.697C33.7591 204.212 35.7131 204.973 37.6701 204.973C39.5521 204.973 41.4361 204.269 42.8931 202.855L60.9461 185.333C62.4161 183.907 63.2381 181.941 63.2221 179.894C63.2061 177.846 62.3531 175.894 60.8621 174.49L42.8091 157.498C39.7921 154.659 35.0461 154.802 32.2071 157.819C29.3681 160.835 29.5121 165.582 32.5281 168.421L37.0921 172.717H18.4701C8.55909 172.717 0.496094 180.78 0.496094 190.69V315.758C0.496094 325.669 8.55909 333.732 18.4701 333.732H54.7231C58.8651 333.732 62.2231 330.374 62.2231 326.232C62.2231 322.09 58.8651 318.732 54.7231 318.732H18.4701C16.8301 318.732 15.4961 317.398 15.4961 315.758V190.69C15.4961 189.051 16.8301 187.717 18.4701 187.717H36.9541L32.4461 192.092C29.4741 194.977 29.4041 199.725 32.2881 202.697Z" fill="#F8CF40"/>
<path d="M287.378 0H89.6839C79.7729 0 71.7109 8.063 71.7109 17.974V58.657C71.7109 68.568 79.7739 76.631 89.6839 76.631H287.378C297.289 76.631 305.352 68.568 305.352 58.657V17.974C305.352 8.063 297.289 0 287.378 0ZM290.352 58.657C290.352 60.297 289.018 61.631 287.378 61.631H89.6839C88.0449 61.631 86.7109 60.297 86.7109 58.657V17.974C86.7109 16.334 88.0449 15 89.6839 15H287.378C289.018 15 290.352 16.334 290.352 17.974V58.657Z" fill="#F8CF40"/>
</g>
<defs>
<clipPath id="clip0">
<rect width="376" height="512" fill="white"/>
</clipPath>
</defs>
</svg>
