<svg width="512" height="512" viewBox="0 0 512 512" fill="none" xmlns="http://www.w3.org/2000/svg">
<path d="M256.551 100.198C170.945 100.198 101.299 169.843 101.299 255.45C101.299 282.743 108.482 309.588 122.074 333.082C124.358 337.029 129.41 338.377 133.358 336.096C137.305 333.812 138.655 328.761 136.372 324.812C124.233 303.828 117.816 279.843 117.816 255.45C117.816 178.951 180.052 116.715 256.551 116.715C333.05 116.715 395.286 178.951 395.286 255.45C395.286 331.949 333.05 394.185 256.551 394.185C218.06 394.185 182.28 378.788 155.803 350.83C152.667 347.519 147.44 347.376 144.128 350.513C140.817 353.649 140.674 358.876 143.811 362.188C173.44 393.472 213.478 410.701 256.551 410.701C342.157 410.701 411.803 341.056 411.803 255.449C411.803 169.842 342.157 100.198 256.551 100.198Z" fill="#F8CF40"/>
<path d="M256.552 155.252C201.302 155.252 156.354 200.2 156.354 255.45C156.354 310.7 201.302 355.648 256.552 355.648C311.802 355.648 356.75 310.7 356.75 255.45C356.75 200.2 311.801 155.252 256.552 155.252ZM256.552 339.131C210.409 339.131 172.87 301.592 172.87 255.449C172.87 209.306 210.409 171.767 256.552 171.767C302.695 171.767 340.234 209.306 340.234 255.449C340.234 301.592 302.694 339.131 256.552 339.131Z" fill="#F8CF40"/>
<path d="M397.487 78.1758C377.452 78.1758 361.152 94.4758 361.152 114.512C361.152 134.548 377.452 150.847 397.487 150.847C417.522 150.847 433.823 134.547 433.823 114.512C433.823 94.4768 417.522 78.1758 397.487 78.1758ZM397.487 134.331C386.559 134.331 377.668 125.44 377.668 114.512C377.668 103.584 386.559 94.6928 397.487 94.6928C408.415 94.6928 417.306 103.584 417.306 114.512C417.306 125.44 408.415 134.331 397.487 134.331Z" fill="#F8CF40"/>
<path d="M398.039 0H113.961C51.023 0 0 51.023 0 113.961V398.038C0 460.977 51.023 512 113.961 512H398.038C460.977 512 512 460.977 512 398.039V113.961C512 51.023 460.977 0 398.039 0ZM495.484 398.039C495.484 451.856 451.856 495.484 398.039 495.484H113.961C60.144 495.484 16.516 451.856 16.516 398.039V113.961C16.516 60.144 60.144 16.516 113.961 16.516H398.038C451.855 16.516 495.483 60.144 495.483 113.961V398.039H495.484Z" fill="#F8CF40"/>
<path d="M394.736 38.5381H117.266C73.7871 38.5381 38.5391 73.7861 38.5391 117.265V394.736C38.5391 438.215 73.7871 473.463 117.266 473.463H394.737C438.216 473.463 473.464 438.215 473.464 394.736V117.265C473.463 73.7851 438.216 38.5381 394.736 38.5381ZM456.947 394.735C456.947 429.093 429.094 456.946 394.736 456.946H117.266C82.9081 456.946 55.0551 429.093 55.0551 394.735V117.265C55.0551 82.9071 82.9081 55.0541 117.266 55.0541H394.737C429.095 55.0541 456.948 82.9071 456.948 117.265V394.735H456.947Z" fill="#F8CF40"/>
</svg>
