<svg width="342" height="512" viewBox="0 0 342 512" fill="none" xmlns="http://www.w3.org/2000/svg">
<path d="M171.001 0C76.897 0 0.333984 76.563 0.333984 170.667C0.333984 198.917 7.39699 226.927 20.824 251.771L161.668 506.5C163.543 509.896 167.116 512 171.001 512C174.886 512 178.459 509.896 180.334 506.5L321.23 251.687C334.605 226.927 341.668 198.916 341.668 170.666C341.668 76.563 265.105 0 171.001 0ZM171.001 256C123.949 256 85.668 217.719 85.668 170.667C85.668 123.615 123.949 85.334 171.001 85.334C218.053 85.334 256.334 123.615 256.334 170.667C256.334 217.719 218.053 256 171.001 256Z" fill="#F8CF40"/>
</svg>
