<svg width="512" height="512" viewBox="0 0 512 512" fill="none" xmlns="http://www.w3.org/2000/svg">
<path d="M398.614 24.35L376.461 2.197C374.997 0.732 373.077 0 371.158 0H140.84C138.921 0 137.001 0.732 135.537 2.197L113.384 24.35C110.469 27.265 110.453 31.985 113.347 34.92L195.796 118.516L231.972 165.164L207.365 342.332C206.795 346.435 209.659 350.223 213.762 350.792C214.112 350.841 214.459 350.864 214.803 350.864C218.487 350.864 221.701 348.148 222.222 344.395L246.365 170.564H265.63L272.533 220.268C273.103 224.371 276.892 227.233 280.993 226.665C285.096 226.095 287.96 222.307 287.39 218.205L280.023 165.163L316.199 118.515L398.648 34.919C401.545 31.985 401.528 27.264 398.614 24.35ZM335.726 32.325H239.445C235.303 32.325 231.945 35.683 231.945 39.825C231.945 43.967 235.303 47.325 239.445 47.325H320.726L293.299 74.752H218.699L191.272 47.325H204.426C208.568 47.325 211.926 43.967 211.926 39.825C211.926 35.683 208.568 32.325 204.426 32.325H176.272L158.947 15H353.051L335.726 32.325ZM140.84 18.106L206.623 83.889L199.114 100.517L129.258 29.689L140.84 18.106ZM268.487 155.565H243.511L210.144 112.539L220.435 89.752H291.564L301.855 112.539L268.487 155.565ZM312.884 100.517L305.375 83.889L371.158 18.106L382.741 29.689L312.884 100.517Z" fill="#F8CF40"/>
<path d="M292.23 253.04C291.66 248.937 287.872 246.078 283.77 246.643C279.667 247.213 276.803 251.001 277.373 255.103L304.59 451.061L255.999 494.446L207.409 451.062L217.396 379.154C217.966 375.051 215.102 371.263 210.999 370.694C206.895 370.119 203.108 372.988 202.539 377.091L192.001 452.961C191.657 455.437 192.57 457.922 194.435 459.587L251.004 510.095C252.427 511.365 254.213 512 255.999 512C257.785 512 259.571 511.365 260.994 510.095L317.563 459.587C319.428 457.921 320.34 455.437 319.997 452.961L292.23 253.04Z" fill="#F8CF40"/>
</svg>
