<svg width="512" height="512" viewBox="0 0 512 512" fill="none" xmlns="http://www.w3.org/2000/svg">
<path d="M260.041 45.8871C265.62 45.8871 270.143 41.3643 270.143 35.7851C270.143 30.2059 265.62 25.6831 260.041 25.6831C254.462 25.6831 249.939 30.2059 249.939 35.7851C249.939 41.3643 254.462 45.8871 260.041 45.8871Z" fill="#F8CF40"/>
<path d="M287.314 43.2847H326.71C330.853 43.2847 334.21 39.9267 334.21 35.7847C334.21 31.6427 330.853 28.2847 326.71 28.2847H287.314C283.171 28.2847 279.814 31.6427 279.814 35.7847C279.814 39.9267 283.172 43.2847 287.314 43.2847Z" fill="#F8CF40"/>
<path d="M132.76 147.484C128.617 147.484 125.26 150.842 125.26 154.984V235.797C125.26 251.072 137.688 263.5 152.964 263.5H173.167C188.442 263.5 200.87 251.072 200.87 235.797V154.984C200.87 150.842 197.513 147.484 193.37 147.484C189.227 147.484 185.87 150.842 185.87 154.984V235.797C185.87 242.801 180.172 248.5 173.167 248.5H152.964C145.959 248.5 140.26 242.801 140.26 235.797V154.984C140.26 150.842 136.902 147.484 132.76 147.484Z" fill="#F8CF40"/>
<path d="M229.918 262.431C231.126 263.156 232.456 263.501 233.77 263.501C236.318 263.501 238.802 262.203 240.208 259.859L264.081 220.07L287.954 259.859C289.361 262.203 291.845 263.501 294.392 263.501C295.705 263.501 297.036 263.156 298.244 262.431C301.796 260.3 302.948 255.693 300.817 252.141L272.828 205.492L300.817 158.843C302.948 155.291 301.796 150.684 298.244 148.553C294.692 146.422 290.085 147.574 287.954 151.125L264.081 190.914L240.208 151.125C238.075 147.573 233.47 146.423 229.918 148.553C226.366 150.684 225.214 155.291 227.345 158.843L255.334 205.492L227.345 252.141C225.214 255.693 226.366 260.3 229.918 262.431Z" fill="#F8CF40"/>
<path d="M193.369 374.771C189.226 374.771 185.869 378.129 185.869 382.271V422.677C185.869 426.819 189.226 430.177 193.369 430.177H233.775C237.918 430.177 241.275 426.819 241.275 422.677V382.271C241.275 378.129 237.918 374.771 233.775 374.771H193.369ZM226.275 415.177H200.869V389.771H226.275V415.177Z" fill="#F8CF40"/>
<path d="M308.527 374.771H268.121C263.978 374.771 260.621 378.129 260.621 382.271V422.677C260.621 426.819 263.978 430.177 268.121 430.177H308.527C312.67 430.177 316.027 426.819 316.027 422.677V382.271C316.027 378.128 312.67 374.771 308.527 374.771ZM301.027 415.177H275.621V389.771H301.027V415.177Z" fill="#F8CF40"/>
<path d="M342.873 374.771C338.73 374.771 335.373 378.129 335.373 382.271V422.677C335.373 426.819 338.73 430.177 342.873 430.177H383.279C387.422 430.177 390.779 426.819 390.779 422.677V382.271C390.779 378.129 387.422 374.771 383.279 374.771H342.873ZM375.779 415.177H350.373V389.771H375.779V415.177Z" fill="#F8CF40"/>
<path d="M437.247 474.195C437.247 473.435 437.132 472.703 436.922 472.011V155.583C436.922 151.441 433.565 148.083 429.422 148.083C425.279 148.083 421.922 151.441 421.922 155.583V466.695H154.076V365.667C154.076 361.525 150.719 358.167 146.576 358.167C142.433 358.167 139.076 361.525 139.076 365.667V504.5C139.076 508.642 142.433 512 146.576 512H429.422C433.565 512 436.922 508.642 436.922 504.5V476.379C437.132 475.688 437.247 474.955 437.247 474.195ZM154.076 497V481.695H421.922V497H154.076Z" fill="#F8CF40"/>
<path d="M139.08 330.44C139.08 334.582 142.437 337.94 146.58 337.94C150.723 337.94 154.08 334.582 154.08 330.44V293.805H260.975L309.287 342.117C310.723 343.552 312.641 344.314 314.593 344.314C315.559 344.314 316.533 344.127 317.461 343.743C320.264 342.582 322.091 339.847 322.091 336.814V293.806H324.693C339.968 293.806 352.396 281.378 352.396 266.103V144.882C352.396 129.606 339.968 117.178 324.693 117.178H231.5C227.357 117.178 224 120.536 224 124.678C224 128.82 227.357 132.178 231.5 132.178H324.691C331.696 132.178 337.394 137.877 337.394 144.882V266.101C337.394 273.105 331.696 278.804 324.691 278.804H314.59C310.447 278.804 307.09 282.162 307.09 286.304V318.706L269.385 281.001C267.978 279.594 266.071 278.804 264.081 278.804H146.677C146.645 278.804 146.613 278.799 146.58 278.799C146.547 278.799 146.516 278.803 146.483 278.804H102.455C95.45 278.804 89.752 273.105 89.752 266.101V144.882C89.752 137.877 95.45 132.178 102.455 132.178H196.583C200.726 132.178 204.083 128.82 204.083 124.678C204.083 120.536 200.726 117.178 196.583 117.178H154.08V45.305H211.911L219.223 61.391C223.707 71.256 233.607 77.63 244.444 77.63H331.557C342.394 77.63 352.293 71.255 356.778 61.391L364.09 45.305H421.921V120.471C421.921 124.613 425.278 127.971 429.421 127.971C433.564 127.971 436.921 124.613 436.921 120.471V7.5C436.921 3.358 433.564 0 429.421 0H146.58C142.437 0 139.08 3.358 139.08 7.5V117.179H102.455C87.18 117.179 74.752 129.607 74.752 144.883V266.102C74.752 281.377 87.18 293.805 102.455 293.805H139.08V330.44ZM421.92 15V30.305H359.26C356.319 30.305 353.65 32.024 352.432 34.701L343.121 55.183C341.065 59.706 336.526 62.629 331.557 62.629H244.444C239.474 62.629 234.935 59.706 232.88 55.183L223.569 34.701C222.351 32.023 219.682 30.305 216.741 30.305H154.081V15H421.92Z" fill="#F8CF40"/>
</svg>
